<svg xmlns="http://www.w3.org/2000/svg" xmlns:xlink="http://www.w3.org/1999/xlink" viewBox="0 0 500 500"><defs><clipPath id="freepik--clip-path--inject-243"><path d="M180.57,259.19s-16.11-3.05-25.86,15.38c-8.22,15.51-42.18,97.13-52.7,122.51h42c8.87-40.35,26-113.81,33.44-116.55,10.29-3.8,25.94.27,25.94.27Z" style="fill:#90CAF9;stroke:#263238;stroke-linecap:round;stroke-linejoin:round;stroke-width:1.14832px"></path></clipPath></defs><g id="freepik--background-simple--inject-243"><path d="M51.18,296.87s6.9,60.2,58.06,85.92,101.27.7,147.28-5.33c24.09-3.15,46.44,8.69,70.06,11.17,75.54,7.93,134.82-81.08,124.18-146.56-9.2-56.69-45.43-96.7-111.43-125.24S227.93,65.57,151.26,92.41,45.71,218.93,51.18,296.87Z" style="fill:#90CAF9"></path><path d="M51.18,296.87s6.9,60.2,58.06,85.92,101.27.7,147.28-5.33c24.09-3.15,46.44,8.69,70.06,11.17,75.54,7.93,134.82-81.08,124.18-146.56-9.2-56.69-45.43-96.7-111.43-125.24S227.93,65.57,151.26,92.41,45.71,218.93,51.18,296.87Z" style="fill:#fff;opacity:0.8"></path></g><g id="freepik--Window--inject-243"><path d="M304.31,383.86H449.6V150.92H304.31Zm75.81-56h63.76V322.2H380.12v-52h63.76v-5.64H380.12V213.66h63.76V208H380.12V156.56H444.3V378.21H380.12Zm-70.5-171.29h65.19V208H309.62Zm0,57.1h65.19v50.91H309.62Zm0,56.55h65.19v52H309.62Zm0,57.64h65.19v50.36H309.62Z" style="fill:#b5b5b5"></path><path d="M449.11,145.58a72.93,72.93,0,0,0-145.26,0l-.34,3.81H449.45ZM311.26,142.4a65.62,65.62,0,0,1,16.53-34.85l41,34.85Zm61-6.17L332.8,102.64A65.6,65.6,0,0,1,372.29,86.4Zm7-49.91a65.71,65.71,0,0,1,37.88,13.82l-37.88,35.58Zm3.09,56.08,40.08-37.65A65.52,65.52,0,0,1,441.7,142.4Z" style="fill:#b5b5b5"></path></g><g id="freepik--Plants--inject-243"><path d="M134,302.73a16.92,16.92,0,0,0-8.29,5.07,36.21,36.21,0,0,0-5,6.8c-.9,1.56-1.72,3.17-2.48,4.8-.49,1.06-.86,2.39-1.33,3.61-.67,1.08-1.33,2.19-1.9,3.23,2-7.21,8.46-20.48,8.57-24.25.13-4.1-3.81,2-6,10.35a116.29,116.29,0,0,0-2.82,14.39c-.23.43-.43.84-.61,1.22-.4.84-1.09,2.27-2,4.13,2-6.12,2.73-13.39,1.52-14.29-1.75-1.3-2.38,1.89-2.37,7.78A50.68,50.68,0,0,1,109.22,338c-1.1,2.18-2.33,4.58-3.65,7.11,1.38-4.41,2.18-10.76,2.94-15.52,1.1-6.92.63-9.08-1.61-5.75s-1.85,8.15-1.32,14.05a24.58,24.58,0,0,1-2,11c-1.69,3.21-3.48,6.52-5.29,9.78a33.36,33.36,0,0,0,2.88-10.57c.78-8-.25-15.35-2.1-13.27s-.76,7.65-1,14.43a77,77,0,0,1-1.39,12.22l-.56,1A33.45,33.45,0,0,0,96.7,352c.37-1.34.24-2.19-.21-2.6-.06-1.51.06-3.78-.58-4.93-1.62-2.89-3.39,1-3.41,2.54a25.88,25.88,0,0,0,.24,3.51,9.3,9.3,0,0,0-1.62,2c-.24.41-.5.87-.77,1.37,0-.48.06-1,.08-1.46a7.17,7.17,0,0,0-.8-3.77,23.54,23.54,0,0,0,2.09-6.15,3.36,3.36,0,0,0-.18-2.13,1.74,1.74,0,0,0-2.59-.7c-3.08,1.63-3.9,5.55-4.25,8.69a52.21,52.21,0,0,1-1.6,8c-.63,2.37-1.18,4.51-1.54,6-.27-1.65-.58-3.25-1-4.73-.35-1.29-.68-2.54-1-3.74a25.07,25.07,0,0,1,2.48-12.67c3.64-7.48,6.27-11,3.75-11.13s-6.18,3.77-6.7,9.93a68.92,68.92,0,0,0-.24,11.25c-.8-2.87-1.59-5.57-2.41-8.32a18.19,18.19,0,0,1,.45-9.15c1.72-5.08,6.85-14.1,4.15-13.39s-5.94,5.94-6.3,11.48a30.14,30.14,0,0,0,.95,8.6c-.59-1.93-1.21-3.92-1.88-6-.28-.9-.58-1.85-.87-2.84,0-.16,0-.33-.08-.5a14.06,14.06,0,0,1,1.48-8.33c2.58-4.64,7.38-8.62,4.55-9.69s-7.12,6.49-7.36,10.27a18,18,0,0,0,.34,4.28c-.11-.29-.23-.59-.35-.88-.61-2.16-1.2-4.3-1.72-6.2a17.34,17.34,0,0,1,1.64-8.11c2.52-5.78,5.73-12.39,2.46-10.71-2.64,1.36-5.49,9.16-4.93,15.74-.22-.86-.42-1.6-.58-2.2-.43-3.77-1.24-12.65,0-17.94.81-3.53,2.13-6.87,2.54-10.5a2.23,2.23,0,0,0-.06-1.12c-.88-2.19-3.73,2.07-4.2,2.77a16.93,16.93,0,0,0-2.59,9.37,35.89,35.89,0,0,0,1,8.38c.4,1.75.89,3.49,1.46,5.2.36,1.11,1,2.34,1.49,3.54.24,1.25.52,2.52.81,3.66C65.38,312,61,297.88,58.55,295c-2.71-3.08-1.4,4.09,2.66,11.68A116.31,116.31,0,0,0,69,319.16c.13.47.26.91.39,1.31.28.89.75,2.41,1.35,4.39-2.75-5.81-7.14-11.65-8.64-11.49-2.16.24-.44,3,3.58,7.31a51,51,0,0,1,6.93,10.48c.68,2.35,1.42,4.94,2.18,7.69-2-4.17-5.75-9.36-8.44-13.35-3.92-5.81-5.74-7.07-5.11-3.11s4.21,7.22,8.64,11.17A24.74,24.74,0,0,1,75.9,343c.95,3.49,1.9,7.14,2.8,10.76a33.39,33.39,0,0,0-5.1-9.7C68.7,337.66,62.93,333,63,335.78s4.66,6.11,9.13,11.2a75.11,75.11,0,0,1,7.32,9.89c.09.36.18.73.26,1.09-2-3.67-5.19-6.66-8.29-9.42-1.09-1-2.74-3.1-4.15-3.55-3.14-1-1.79,3.05-.75,4.18,3.36,3.68,8.1,5.95,11.21,9.82a34,34,0,0,1,3.14,4.64c.22,1.27.38,2.46.51,3.57A48.67,48.67,0,0,0,77.63,364c-3.8-2.56-6-6.07-8.93-9.45-.88-1-2.37-2.25-3.78-2.31-2-.09-2.59,2-2,3.65,2.31,6.8,11,7.1,16.09,10.63a14.82,14.82,0,0,1,2.57,2.08,43.19,43.19,0,0,1,.17,6.32H70.06v4.87h3.47l2.82,17.34H99.71l2.82-17.34H106v-4.87H88.43c.8-1,1.66-2,2.52-3.14l3.7.11s12.84.56,17.55-2,.51-5-4-3.69-13.37,5.31-15.33,5.25l-1.66-.05c.92-1.19,1.84-2.43,2.71-3.69a86,86,0,0,0,10.41-3.32c3.69-1.46,8-2.64,11.14-5.11a3.4,3.4,0,0,0,1.32-1.68,1.74,1.74,0,0,0-1.41-2.27c-3.37-.91-6.65,1.39-9,3.45a53,53,0,0,1-6.63,4.76c-2.08,1.29-3.94,2.49-5.21,3.31.93-1.38,1.79-2.77,2.52-4.12.63-1.18,1.24-2.31,1.82-3.42a25.08,25.08,0,0,1,10.46-7.57c7.76-3,12.07-3.74,10.34-5.57s-7.1-1.47-11.68,2.68a68.1,68.1,0,0,0-7.86,8.06c1.37-2.64,2.65-5.16,3.92-7.73a18.23,18.23,0,0,1,6.58-6.38c4.72-2.53,14.62-5.63,12.16-6.95s-8.39.28-12.43,4.09a30,30,0,0,0-5.18,6.94c.89-1.82,1.79-3.7,2.74-5.69.41-.86.85-1.75,1.3-2.67.1-.14.2-.28.29-.43a14,14,0,0,1,6.77-5.07c5-1.63,11.28-1.27,9.93-4s-9.63-.11-12.39,2.48a18.71,18.71,0,0,0-2.67,3.36c.12-.28.24-.58.35-.88,1-2,2-4,3-5.7a17.32,17.32,0,0,1,6.73-4.81c5.79-2.5,12.65-5.15,9.11-6.15-2.86-.81-10.27,2.94-14.34,8.14l1.07-2c2.26-3.06,7.73-10.1,12.23-13.13,3-2,6.25-3.57,9-5.94a2.37,2.37,0,0,0,.72-.86C139.85,301.36,134.86,302.53,134,302.73ZM81.72,363.35c.75-1.15,2.08-3.27,3.55-6A37.87,37.87,0,0,0,86.82,361c-1.36,2.79-2.6,5.22-3.32,5.84l-1.24,1.1C82.12,366.41,81.94,364.87,81.72,363.35Zm8.5,8.09c-1.06,1.37-2,2.51-2.94,3.47H82.72c-.07-1.86-.2-4.14-.42-6.57l2.78-2.45s1.22-1,2.86-2.61a23.5,23.5,0,0,1,1.83,4.88A14.24,14.24,0,0,1,90.22,371.44ZM94,361.82a34.53,34.53,0,0,1-.87,5.54c-.71,1.08-1.4,2.06-2.06,3-.06-1.68-.51-4.71-.56-4.92a20.64,20.64,0,0,1-.51-4.14A54.37,54.37,0,0,0,93.78,357,22.5,22.5,0,0,1,94,361.82Z" style="fill:#263238"></path></g><g id="freepik--Device--inject-243"><path d="M368,363.31l16.19,26.07A5,5,0,0,1,380,397H346.9a5,5,0,0,0,4.25-7.6l-15.66-25.51Z" style="fill:#fff;stroke:#263238;stroke-linecap:round;stroke-linejoin:round;stroke-width:1.14832px"></path><polygon points="368.02 363.31 335.49 363.89 341.51 373.7 374.47 373.7 368.02 363.31" style="fill:#263238;stroke:#263238;stroke-linecap:round;stroke-linejoin:round;stroke-width:1.14832px"></polygon><rect x="278.55" y="252.34" width="138.27" height="116.78" rx="2.91" transform="translate(695.37 621.46) rotate(180)" style="fill:#fff;stroke:#263238;stroke-linecap:round;stroke-linejoin:round;stroke-width:1.14832px"></rect><rect x="273.32" y="252.34" width="138.27" height="116.78" rx="2.91" transform="translate(684.91 621.46) rotate(180)" style="fill:#fff;stroke:#263238;stroke-linecap:round;stroke-linejoin:round;stroke-width:1.14832px"></rect><path d="M278,252.34H407a4.65,4.65,0,0,1,4.64,4.65V348.2H273.32V257A4.65,4.65,0,0,1,278,252.34Z" style="fill:#263238;stroke:#263238;stroke-linecap:round;stroke-linejoin:round;stroke-width:1.14832px"></path><rect x="279.13" y="256.99" width="126.65" height="84.82" transform="translate(684.91 598.8) rotate(180)" style="fill:#fff;stroke:#263238;stroke-linecap:round;stroke-linejoin:round;stroke-width:1.14832px"></rect><rect x="237.74" y="391.16" width="4.02" height="1.34" style="fill:#fff;stroke:#263238;stroke-linecap:round;stroke-linejoin:round;stroke-width:1.14832px"></rect><rect x="243.1" y="391.16" width="4.02" height="1.34" style="fill:#fff;stroke:#263238;stroke-linecap:round;stroke-linejoin:round;stroke-width:1.14832px"></rect><rect x="248.47" y="391.16" width="4.02" height="1.34" style="fill:#fff;stroke:#263238;stroke-linecap:round;stroke-linejoin:round;stroke-width:1.14832px"></rect><rect x="253.83" y="391.16" width="4.02" height="1.34" style="fill:#fff;stroke:#263238;stroke-linecap:round;stroke-linejoin:round;stroke-width:1.14832px"></rect><rect x="259.19" y="391.16" width="4.02" height="1.34" style="fill:#fff;stroke:#263238;stroke-linecap:round;stroke-linejoin:round;stroke-width:1.14832px"></rect><rect x="264.56" y="391.16" width="4.02" height="1.34" style="fill:#fff;stroke:#263238;stroke-linecap:round;stroke-linejoin:round;stroke-width:1.14832px"></rect><rect x="269.92" y="391.16" width="4.02" height="1.34" style="fill:#fff;stroke:#263238;stroke-linecap:round;stroke-linejoin:round;stroke-width:1.14832px"></rect><rect x="275.28" y="391.16" width="4.02" height="1.34" style="fill:#fff;stroke:#263238;stroke-linecap:round;stroke-linejoin:round;stroke-width:1.14832px"></rect><rect x="280.65" y="391.16" width="4.02" height="1.34" style="fill:#fff;stroke:#263238;stroke-linecap:round;stroke-linejoin:round;stroke-width:1.14832px"></rect><rect x="286.01" y="391.16" width="4.02" height="1.34" style="fill:#fff;stroke:#263238;stroke-linecap:round;stroke-linejoin:round;stroke-width:1.14832px"></rect><rect x="291.37" y="391.16" width="4.02" height="1.34" style="fill:#fff;stroke:#263238;stroke-linecap:round;stroke-linejoin:round;stroke-width:1.14832px"></rect><rect x="296.74" y="391.16" width="4.02" height="1.34" style="fill:#fff;stroke:#263238;stroke-linecap:round;stroke-linejoin:round;stroke-width:1.14832px"></rect><rect x="302.1" y="391.16" width="4.02" height="1.34" style="fill:#fff;stroke:#263238;stroke-linecap:round;stroke-linejoin:round;stroke-width:1.14832px"></rect><rect x="307.46" y="391.16" width="4.02" height="1.34" style="fill:#fff;stroke:#263238;stroke-linecap:round;stroke-linejoin:round;stroke-width:1.14832px"></rect><rect x="312.83" y="391.16" width="4.02" height="1.34" style="fill:#fff;stroke:#263238;stroke-linecap:round;stroke-linejoin:round;stroke-width:1.14832px"></rect><rect x="318.19" y="391.16" width="4.02" height="1.34" style="fill:#fff;stroke:#263238;stroke-linecap:round;stroke-linejoin:round;stroke-width:1.14832px"></rect><rect x="323.55" y="391.16" width="4.02" height="1.34" style="fill:#fff;stroke:#263238;stroke-linecap:round;stroke-linejoin:round;stroke-width:1.14832px"></rect><rect x="328.92" y="391.16" width="4.02" height="1.34" style="fill:#fff;stroke:#263238;stroke-linecap:round;stroke-linejoin:round;stroke-width:1.14832px"></rect><rect x="334.28" y="391.16" width="4.02" height="1.34" style="fill:#fff;stroke:#263238;stroke-linecap:round;stroke-linejoin:round;stroke-width:1.14832px"></rect><rect x="339.64" y="391.16" width="4.02" height="1.34" style="fill:#fff;stroke:#263238;stroke-linecap:round;stroke-linejoin:round;stroke-width:1.14832px"></rect><rect x="345.01" y="391.16" width="4.02" height="1.34" style="fill:#fff;stroke:#263238;stroke-linecap:round;stroke-linejoin:round;stroke-width:1.14832px"></rect><rect x="235.66" y="392.7" width="116.29" height="4.34" style="fill:#fff;stroke:#263238;stroke-linecap:round;stroke-linejoin:round;stroke-width:1.14832px"></rect><rect x="323.59" y="392.7" width="28.37" height="4.34" style="fill:#263238;stroke:#263238;stroke-linecap:round;stroke-linejoin:round;stroke-width:1.14832px"></rect></g><g id="freepik--Text--inject-243"><path d="M294.25,309.48l17.8-42.09h10.68v42.09h4.62v8.9h-4.62v11.3h-9.61v-11.3H294.25Zm18.87,0v-23.4l-9.88,23.4Z" style="fill:#263238"></path><path d="M331,282.34c0-10,5.25-15.66,14.86-15.66s14.86,5.69,14.86,15.66v32.39c0,10-5.25,15.66-14.86,15.66S331,324.69,331,314.73Zm9.79,33c0,4.45,2,6.14,5.07,6.14s5.08-1.69,5.08-6.14V281.72c0-4.45-2-6.14-5.08-6.14s-5.07,1.69-5.07,6.14Z" style="fill:#263238"></path><path d="M373.09,275.22c7.57,0,9.26-3.65,10.77-7.83h6.58v62.29h-9.78V282.16h-7.57Z" style="fill:#263238"></path><path d="M293.13,419.63c0,1.47.58,2.36,1.91,2.36s1.88-.89,1.88-2.36V407.17h1.71v12.37c0,2.47-1.15,4.13-3.66,4.13s-3.64-1.66-3.64-4.13V407.17h1.8Z" style="fill:#263238"></path><path d="M302,423.48H300.4V407.17h2.3L306.48,419V407.17h1.61v16.31H306.2L302,410.29Z" style="fill:#263238"></path><path d="M311.79,420.19l-.63,3.29h-1.68l3.13-16.31h2.63l3.12,16.31h-1.82l-.62-3.29Zm.23-1.56h3.64l-1.84-9.41Z" style="fill:#263238"></path><path d="M321.51,419.63c0,1.47.58,2.36,1.91,2.36s1.88-.89,1.88-2.36V407.17H327v12.37c0,2.47-1.15,4.13-3.66,4.13s-3.64-1.66-3.64-4.13V407.17h1.8Z" style="fill:#263238"></path><path d="M331.15,423.48V408.82h-3v-1.65H336v1.65h-3v14.66Z" style="fill:#263238"></path><path d="M339,416.14v7.34h-1.81V407.17H339v7.34h4v-7.34h1.82v16.31H343v-7.34Z" style="fill:#263238"></path><path d="M346.55,411.11c0-2.5,1.24-4.11,3.73-4.11s3.75,1.61,3.75,4.11v8.43c0,2.47-1.23,4.1-3.75,4.1s-3.73-1.63-3.73-4.1Zm1.8,8.52c0,1.5.63,2.36,1.93,2.36s1.94-.86,1.94-2.36V411c0-1.47-.61-2.35-1.94-2.35s-1.93.88-1.93,2.35Z" style="fill:#263238"></path><path d="M359.39,407.17c2.57,0,3.64,1.3,3.64,3.73v1.32c0,1.8-.63,2.92-2,3.36,1.49.44,2.05,1.65,2.05,3.4v2.54a4,4,0,0,0,.33,2h-1.84a4.27,4.27,0,0,1-.31-2v-2.57c0-1.84-.86-2.42-2.37-2.42h-1.29v7h-1.81V407.17Zm-.46,7.69c1.44,0,2.3-.47,2.3-2.24v-1.56c0-1.47-.53-2.24-1.88-2.24h-1.78v6Z" style="fill:#263238"></path><path d="M366.75,407.17v16.31h-1.81V407.17Z" style="fill:#263238"></path><path d="M375.77,423.48h-7.41v-1.63l5.59-13h-5.33v-1.65h7.2v1.63l-5.62,13h5.57Z" style="fill:#263238"></path><path d="M383.25,414.39V416h-4v5.81h4.89v1.65h-6.71V407.17h6.71v1.65h-4.89v5.57Z" style="fill:#263238"></path><path d="M389.66,407.17c2.54,0,3.7,1.54,3.7,4.05v8.23c0,2.49-1.16,4-3.7,4h-3.82V407.17Zm0,14.66c1.3,0,1.93-.82,1.93-2.31v-8.39c0-1.49-.63-2.31-2-2.31h-2v13Z" style="fill:#263238"></path></g></svg>